<?xml version="1.0" standalone="no"?>
<!DOCTYPE svg PUBLIC "-//W3C//DTD SVG 20010904//EN"
 "http://www.w3.org/TR/2001/REC-SVG-20010904/DTD/svg10.dtd">
<svg version="1.0" xmlns="http://www.w3.org/2000/svg"
 width="177.000000pt" height="30.000000pt" viewBox="0 0 177.000000 30.000000"
 preserveAspectRatio="xMidYMid meet">

<g transform="translate(0.000000,30.000000) scale(0.100000,-0.100000)"
fill="#FFFFFF" stroke="none">
<path d="M447 268 c-4 -18 -9 -66 -13 -105 -4 -40 -10 -73 -13 -73 -4 0 -19
25 -34 55 l-27 55 -180 0 -180 0 0 -25 0 -25 164 0 165 0 41 -75 c33 -60 46
-75 65 -75 27 0 29 6 45 145 6 49 12 91 14 92 2 2 32 -51 67 -117 57 -107 66
-120 90 -120 l27 0 13 121 c15 141 9 142 95 -20 42 -79 56 -97 77 -99 29 -4
27 -11 48 151 l11 89 17 -29 c10 -15 39 -70 66 -120 39 -76 53 -93 71 -93 13
0 25 4 28 8 2 4 10 56 17 115 6 59 15 107 18 107 4 0 34 -51 67 -112 50 -95
64 -113 86 -116 25 -3 26 -1 37 85 7 48 14 104 17 123 l6 35 24 -47 24 -48
185 0 185 0 0 25 0 25 -169 0 -170 0 -27 50 c-24 44 -31 50 -60 50 -38 0 -40
-4 -49 -110 -3 -42 -10 -81 -14 -88 -4 -7 -28 27 -62 90 -53 100 -55 103 -89
103 -38 0 -38 1 -55 -149 -4 -32 -10 -54 -15 -50 -4 5 -31 53 -60 107 -49 93
-53 97 -85 97 -37 0 -39 -5 -51 -133 -4 -43 -10 -77 -13 -77 -3 0 -31 48 -61
105 -55 105 -55 106 -90 103 l-34 -3 -13 -94 c-7 -52 -14 -99 -16 -105 -2 -5
-29 38 -61 97 -55 103 -58 107 -90 107 -30 0 -34 -3 -39 -32z"/>
</g>
</svg>
